<?xml version="1.0" encoding="iso-8859-1"?>
<!-- Generator: Adobe Illustrator 19.0.0, SVG Export Plug-In . SVG Version: 6.00 Build 0)  -->
<svg version="1.1" id="Capa_1" xmlns="http://www.w3.org/2000/svg" xmlns:xlink="http://www.w3.org/1999/xlink" x="0px" y="0px"
	 viewBox="0 0 512.001 512.001" style="enable-background:new 0 0 512.001 512.001;" xml:space="preserve">
<path style="fill:#FF9017;" d="M378.163,134.941l-69.777,78.067l-51.08-51.08c-20.515-20.515-52.731-23.519-76.684-7.149
	l-50.771,34.696h44.234L16.251,338.178l0,0c51.271,8.491,103.89-1.52,148.461-28.244l23.857-14.305l71.808,82.563
	c22.895,26.324,63.281,27.794,88.029,3.203l134.432-142.272c27.184-27.192,28.953-70.691,4.067-100.001l0,0
	C458.89,106.125,408.63,104.193,378.163,134.941z"/>
<path style="fill:#FF7043;" d="M482.839,218.184L348.407,360.456c-24.748,24.591-65.133,23.121-88.029-3.203l-71.808-82.563
	l-23.857,14.305c-38.867,23.305-83.855,33.896-128.731,30.595l-19.73,18.588l0,0c51.271,8.491,103.89-1.52,148.461-28.244
	l23.857-14.305l71.808,82.563c22.895,26.324,63.281,27.794,88.029,3.203l134.432-142.272c17.01-17.015,24.067-40.416,20.871-62.728
	C501.533,191.725,494.551,206.47,482.839,218.184z"/>
<path d="M492.654,134.241c-14.717-17.334-36.189-27.775-58.911-28.649c-22.704-0.871-44.931,7.889-60.936,24.042l-64.728,72.404
	l-45.44-45.44c-23.061-23.06-59.34-26.445-86.27-8.042l-70.914,48.461h49.632L0,343.13l15.018,2.487
	c12.281,2.034,24.637,3.038,36.96,3.038c40.838-0.002,81.233-11.042,116.61-32.254l18.438-11.055l67.661,77.796
	c12.458,14.323,29.765,22.591,48.736,23.281c0.858,0.031,1.708,0.046,2.561,0.046c18.011-0.001,34.88-6.95,47.737-19.725
	L488.25,244.375c14.441-14.485,22.851-33.712,23.683-54.152C512.765,169.746,505.919,149.865,492.654,134.241z M477.507,233.792
	L343.011,376.127c-10.463,10.354-24.32,15.756-39.039,15.225c-14.755-0.537-28.216-6.968-37.905-18.108l-75.955-87.331
	l-29.277,17.554c-38.495,23.082-83.344,33.261-127.8,29.258l160.048-150.789h-38.835l30.629-20.931
	c20.943-14.312,49.162-11.682,67.098,6.255l56.719,56.718l74.958-83.863c13.216-13.265,30.776-20.177,49.513-19.453
	c18.784,0.722,35.829,9.011,47.996,23.34C503.335,170.12,501.731,209.561,477.507,233.792z"/>
<g>
	
		<rect x="162.018" y="216.528" transform="matrix(-0.6857 -0.7279 0.7279 -0.6857 114.64 519.8555)" style="fill:#FFFFFF;" width="15.08" height="37.297"/>
	<path style="fill:#FFFFFF;" d="M95.847,313.556l-3.362-14.7c18.657-4.268,36.433-11.418,52.841-21.255l7.754,12.932
		C135.311,301.189,116.054,308.934,95.847,313.556z"/>
	<path style="fill:#FFFFFF;" d="M305.911,376.308c-10.929-0.001-21.304-4.725-28.466-12.959l-2.808-3.23l11.378-9.895l2.808,3.229
		c4.297,4.94,10.526,7.774,17.087,7.775c5.842,0,11.375-2.221,15.599-6.257l25.431-26.913l10.96,10.357l-25.788,27.281
		C325.046,372.539,315.741,376.308,305.911,376.308z M264.741,348.741l-18.8-21.616l11.378-9.896l18.8,21.616L264.741,348.741z"/>
	<path style="fill:#FFFFFF;" d="M432.943,258.994l-10.96-10.357l18.398-19.471l10.96,10.357L432.943,258.994z M461.698,228.562
		l-10.96-10.357l5.437-5.733c6.772-6.774,10.499-15.862,10.499-25.593c0-8.601-3.021-16.897-8.506-23.357
		c-6.881-8.103-16.931-12.75-27.575-12.75v-15.08c15.078,0,29.318,6.587,39.068,18.07c7.797,9.184,12.091,20.945,12.091,33.118
		c0,13.759-5.296,26.633-14.912,36.252l-0.223,0.223L461.698,228.562z"/>
	<path style="fill:#FFFFFF;" d="M359.317,212.596l-11.243-10.049l25.458-28.482l11.243,10.049L359.317,212.596z M394.824,172.87
		l-11.243-10.049l10.864-12.154l11.243,10.049L394.824,172.87z"/>
	
		<rect x="227.56" y="196.039" transform="matrix(-0.7071 -0.7071 0.7071 -0.7071 293.5818 528.7639)" style="fill:#FFFFFF;" width="57.483" height="15.08"/>
</g>
<g>
</g>
<g>
</g>
<g>
</g>
<g>
</g>
<g>
</g>
<g>
</g>
<g>
</g>
<g>
</g>
<g>
</g>
<g>
</g>
<g>
</g>
<g>
</g>
<g>
</g>
<g>
</g>
<g>
</g>
</svg>
